<?xml version="1.0" encoding="UTF-8"?>
<svg id="Layer_1" data-name="Layer 1" xmlns="http://www.w3.org/2000/svg" viewBox="0 0 500 500">
  <path d="M190.72,320.83l-75.38-69.36c-.86-.79-.86-2.15,0-2.94l75.38-69.36c.81-.75,2.08-.7,2.83.12l8.8,9.56c.75.81.7,2.08-.12,2.83l-61.79,56.85c-.86.79-.86,2.15,0,2.94l61.79,56.85c.81.75.87,2.01.12,2.83l-8.8,9.56c-.75.81-2.01.87-2.83.12Z"/>
  <path d="M306.45,320.71l-8.8-9.56c-.75-.81-.7-2.08.12-2.83l61.79-56.85c.86-.79.86-2.15,0-2.94l-61.79-56.85c-.81-.75-.87-2.01-.12-2.83l8.8-9.56c.75-.81,2.01-.87,2.83-.12l75.38,69.36c.86.79.86,2.15,0,2.94l-75.38,69.36c-.81.75-2.08.7-2.83-.12Z"/>
  <rect x="164.52" y="241.51" width="169.9" height="16.99" rx="2" ry="2" transform="translate(-71.04 398.34) rotate(-69.9)"/>
</svg>