<?xml version="1.0" encoding="UTF-8"?>
<svg id="Layer_1" data-name="Layer 1" xmlns="http://www.w3.org/2000/svg" viewBox="0 0 500 500">
  <path d="M120.83,303.99v27.92c0,1.1.78,2,1.73,2h254.86c.96,0,1.73-.9,1.73-2v-27.92H120.83Z"/>
  <path d="M285.06,371.67h-70.13c-1.42,0-2.39-1.47-1.85-2.82l9.85-24.26c.31-.76,1.04-1.26,1.85-1.26h50.43c.81,0,1.54.5,1.85,1.26l9.85,24.26c.54,1.34-.42,2.82-1.85,2.82Z"/>
  <path d="M377.43,128.33H122.57c-.96,0-1.73.92-1.73,2.05v165.4h258.33v-165.4c0-1.13-.78-2.05-1.73-2.05ZM210.53,270.69c-20.51,12.88-47.99,6.6-60.87-13.91s-6.6-47.99,13.91-60.87c7.03-4.42,15.17-6.76,23.48-6.76v44.15l37.39-23.48c12.88,20.51,6.6,47.99-13.91,60.87ZM352.1,277.49h-103.02v-8.97h8.51v-35.24h23.2v35.24h8.79v-47.09h23.2v47.09h8.79v-59.44h23.2v59.44h7.33v8.97ZM352.1,175.78c0,1.1-.9,2-2,2h-58.52c-1.1,0-2-.9-2-2v-4.2c0-1.1.9-2,2-2h58.52c1.1,0,2,.9,2,2v4.2ZM352.1,155.74c0,1.1-.9,2-2,2h-58.52c-1.1,0-2-.9-2-2v-4.2c0-1.1.9-2,2-2h58.52c1.1,0,2,.9,2,2v4.2Z"/>
</svg>