<?xml version="1.0" encoding="UTF-8"?>
<svg id="Layer_1" data-name="Layer 1" xmlns="http://www.w3.org/2000/svg" viewBox="0 0 500 500">
  <path d="M362.91,343.68c0,.59-.28,1.13-.77,1.47-8.91,6.21-31.63,20.08-63.32,19.85-30.78-.22-52.84-13.64-61.76-19.85-.48-.34-.77-.88-.77-1.47v-19.87c0-1.32,1.38-2.19,2.57-1.61,11.95,5.85,32.5,13.79,58.91,14.14,28.32.38,50.3-8.15,62.56-14.14,1.19-.58,2.57.29,2.57,1.61v19.87Z"/>
  <path d="M362.91,309.19c0,.59-.28,1.13-.77,1.47-8.91,6.21-31.63,20.08-63.32,19.85-30.78-.22-52.84-13.64-61.76-19.85-.48-.34-.77-.88-.77-1.47v-19.87c0-1.32,1.38-2.19,2.57-1.61,11.95,5.85,32.5,13.79,58.91,14.14,28.32.38,50.3-8.15,62.56-14.14,1.19-.58,2.57.29,2.57,1.61v19.87Z"/>
  <path d="M362.91,274.69c0,.59-.28,1.13-.77,1.47-8.91,6.21-31.63,20.08-63.32,19.85-30.78-.22-52.84-13.64-61.76-19.85-.48-.34-.77-.88-.77-1.47v-19.87c0-1.32,1.38-2.19,2.57-1.61,11.95,5.85,32.5,13.79,58.91,14.14,28.32.38,50.3-8.15,62.56-14.14,1.19-.58,2.57.29,2.57,1.61v19.87Z"/>
  <ellipse cx="299.6" cy="236.04" rx="63.3" ry="23.57"/>
  <path d="M352.16,134.99h-213.28c-.99,0-1.79.8-1.79,1.79v58.29c0,.99.8,1.79,1.79,1.79h22.25v16.55h-22.25c-.99,0-1.79.8-1.79,1.79v57.93c0,.99.8,1.79,1.79,1.79h22.25v17.2h-22.25c-.99,0-1.79.8-1.79,1.79v56.99c0,.99.8,1.79,1.79,1.79h82.42c.99,0,1.79-.8,1.79-1.79v-56.99c0-.99-.8-1.79-1.79-1.79h-44.56v-17.2h44.56c.99,0,1.79-.8,1.79-1.79v-57.93c0-.99-.8-1.79-1.79-1.79h-44.56v-16.55h137.38v9.78l15.61,2.12v-11.9h22.43c.99,0,1.79-.8,1.79-1.79v-58.29c0-.99-.8-1.79-1.79-1.79ZM186.11,335.42c.99,0,1.79.8,1.79,1.79v3.76c0,.99-.8,1.79-1.79,1.79h-34.34c-.99,0-1.79-.8-1.79-1.79v-3.76c0-.99.8-1.79,1.79-1.79h34.34ZM186.11,255.94c.99,0,1.79.8,1.79,1.79v3.76c0,.99-.8,1.79-1.79,1.79h-34.34c-.99,0-1.79-.8-1.79-1.79v-3.76c0-.99.8-1.79,1.79-1.79h34.34ZM187.9,182.01c0,.99-.8,1.79-1.79,1.79h-34.34c-.99,0-1.79-.8-1.79-1.79v-3.76c0-.99.8-1.79,1.79-1.79h34.34c.99,0,1.79.8,1.79,1.79v3.76Z"/>
</svg>