<?xml version="1.0" encoding="UTF-8"?>
<svg id="Layer_1" data-name="Layer 1" xmlns="http://www.w3.org/2000/svg" viewBox="0 0 500 500">
  <circle cx="250" cy="158.54" r="30.86" transform="translate(7.86 328.84) rotate(-67.5)"/>
  <path d="M355.03,238.67h-46.96l-7.52-39.45c-.18-.94-1-1.63-1.96-1.63h-98.3c-.98,0-1.82.71-1.97,1.68l-6.41,39.39h-21.72v-39.61l11.26-12.81c1.48.59,3.08.92,4.77.92,7.1,0,12.86-5.76,12.86-12.86s-5.76-12.86-12.86-12.86-12.86,5.76-12.86,12.86c0,2.28.6,4.41,1.63,6.26l-12.06,13.72h0s0,0,0,0h0v44.37h-17.96c-1.1,0-2,.9-2,2v28.67c0,1.1.9,2,2,2h17.96v98.98c0,1.1.9,2,2,2h170.14c1.1,0,2-.9,2-2v-98.98h17.96c1.1,0,2-.9,2-2v-28.67c0-1.1-.9-2-2-2ZM307.55,273.44c0,1.1-.9,2-2,2h-111.11c-1.1,0-2-.9-2-2v-4.2c0-1.1.9-2,2-2h111.11c1.1,0,2,.9,2,2v4.2Z"/>
</svg>